<svg version="1.1" viewBox="0 0 900 1000" xmlns="http://www.w3.org/2000/svg">
    <!-- 棋盘背景 -->
    <rect width="900" height="1000" fill="#DEB887"/>
    
    <!-- 外边框 -->
    <rect x="50" y="50" width="800" height="900" fill="none" stroke="black" stroke-width="4"/>
    
    <!-- 横线 -->
    <g stroke="black" stroke-width="2">
        <line x1="50" y1="150" x2="850" y2="150"/>
        <line x1="50" y1="250" x2="850" y2="250"/>
        <line x1="50" y1="350" x2="850" y2="350"/>
        <line x1="50" y1="450" x2="850" y2="450"/>
        <line x1="50" y1="550" x2="850" y2="550"/>
        <line x1="50" y1="650" x2="850" y2="650"/>
        <line x1="50" y1="750" x2="850" y2="750"/>
        <line x1="50" y1="850" x2="850" y2="850"/>
    </g>
    
    <!-- 竖线 -->
    <g stroke="black" stroke-width="2">
        <line x1="150" y1="50" x2="150" y2="450"/>
        <line x1="250" y1="50" x2="250" y2="450"/>
        <line x1="350" y1="50" x2="350" y2="450"/>
        <line x1="450" y1="50" x2="450" y2="450"/>
        <line x1="550" y1="50" x2="550" y2="450"/>
        <line x1="650" y1="50" x2="650" y2="450"/>
        <line x1="750" y1="50" x2="750" y2="450"/>
        
        <line x1="150" y1="550" x2="150" y2="950"/>
        <line x1="250" y1="550" x2="250" y2="950"/>
        <line x1="350" y1="550" x2="350" y2="950"/>
        <line x1="450" y1="550" x2="450" y2="950"/>
        <line x1="550" y1="550" x2="550" y2="950"/>
        <line x1="650" y1="550" x2="650" y2="950"/>
        <line x1="750" y1="550" x2="750" y2="950"/>
    </g>
    
    <!-- 楚河汉界 -->
    <text x="200" y="520" font-size="60" fill="black">楚 河</text>
    <text x="600" y="520" font-size="60" fill="black">漢 界</text>
    
    <!-- 士的斜线 (上方) -->
    <g stroke="black" stroke-width="2">
        <line x1="350" y1="50" x2="550" y2="250"/>
        <line x1="550" y1="50" x2="350" y2="250"/>
    </g>
    
    <!-- 士的斜线 (下方) -->
    <g stroke="black" stroke-width="2">
        <line x1="350" y1="750" x2="550" y2="950"/>
        <line x1="550" y1="750" x2="350" y2="950"/>
    </g>
</svg> 